<?xml version="1.0" standalone="no"?>
<!DOCTYPE svg PUBLIC "-//W3C//DTD SVG 20010904//EN"
 "http://www.w3.org/TR/2001/REC-SVG-20010904/DTD/svg10.dtd">
<svg version="1.0" xmlns="http://www.w3.org/2000/svg"
 width="1280.000000pt" height="1280.000000pt" viewBox="0 0 1280.000000 1280.000000"
 preserveAspectRatio="xMidYMid meet">

<g transform="translate(0.000000,1280.000000) scale(0.100000,-0.100000)"
fill="#000000" stroke="none">
<path d="M3615 11493 c-728 -86 -1382 -405 -1899 -928 -841 -851 -1129 -2087
-750 -3223 129 -387 349 -769 619 -1077 38 -44 255 -266 481 -494 l411 -414
-10 -51 c-15 -81 -3 -221 28 -311 49 -148 87 -198 354 -468 135 -136 267 -261
293 -278 72 -46 183 -86 280 -100 l85 -13 18 -80 c43 -201 86 -263 392 -567
237 -235 252 -248 339 -291 60 -30 121 -51 181 -64 l91 -18 7 -59 c8 -71 39
-175 71 -238 40 -80 134 -187 365 -414 201 -198 232 -225 299 -257 73 -35 167
-61 261 -73 l47 -6 6 -52 c11 -87 55 -203 105 -279 33 -50 127 -151 297 -319
224 -220 257 -249 329 -286 107 -55 171 -73 285 -79 144 -9 278 26 418 107 79
47 906 867 966 959 54 82 82 149 98 233 l12 65 53 11 c73 14 177 57 243 99 31
20 186 166 351 331 l296 296 51 105 c34 70 56 131 65 183 8 43 16 80 18 82 2
2 38 8 80 14 94 13 207 53 279 99 31 19 164 144 301 281 186 187 255 263 287
316 48 83 78 168 89 255 l8 64 72 12 c206 34 261 71 561 373 279 280 298 302
342 390 110 220 89 499 -53 709 l-37 54 83 91 c421 468 684 1034 783 1687 25
164 30 590 10 770 -65 570 -238 1052 -533 1477 -244 354 -632 713 -1007 932
-374 219 -759 351 -1221 418 -171 24 -640 24 -810 0 -342 -50 -576 -113 -850
-229 -389 -165 -693 -372 -1036 -705 l-135 -132 -115 116 c-274 277 -490 443
-787 608 -355 196 -759 323 -1178 369 -174 20 -521 19 -689 -1z m584 -483
c366 -33 760 -154 1076 -332 236 -133 416 -269 620 -470 l140 -137 -666 -668
c-682 -685 -711 -716 -787 -868 -42 -85 -80 -205 -99 -310 -21 -124 -13 -338
17 -455 105 -403 422 -717 837 -827 88 -23 116 -26 268 -26 150 0 181 3 266
26 125 33 202 64 303 124 73 43 160 126 866 830 432 431 788 783 791 783 6 0
349 -347 1774 -1795 330 -335 710 -721 845 -857 273 -276 300 -313 300 -407 0
-33 -8 -72 -19 -96 -12 -25 -97 -117 -232 -251 -174 -172 -221 -214 -254 -223
-89 -24 -158 -9 -230 50 -27 23 -315 303 -640 623 -843 831 -882 869 -928 893
-130 68 -304 -19 -337 -170 -11 -46 -10 -62 5 -113 19 -68 -63 16 969 -999
429 -422 614 -612 627 -640 23 -49 24 -133 4 -183 -21 -50 -416 -447 -470
-473 -54 -25 -137 -24 -195 2 -35 15 -219 194 -805 779 -586 586 -770 764
-805 779 -154 69 -337 -33 -357 -198 -13 -109 -47 -69 802 -921 768 -770 773
-775 790 -833 18 -63 14 -119 -12 -172 -9 -16 -126 -142 -262 -279 -258 -261
-304 -296 -382 -296 -32 0 -41 6 -77 53 -22 28 -137 147 -254 262 -188 187
-222 216 -294 252 -85 45 -193 78 -286 89 -57 6 -58 7 -58 37 0 86 -68 266
-134 355 -52 70 -487 500 -546 540 -63 42 -154 78 -234 92 -114 21 -106 17
-106 58 -1 90 -54 241 -121 339 -41 61 -415 440 -492 500 -102 79 -272 143
-379 143 -49 0 -58 9 -58 59 0 78 -68 250 -135 341 -34 45 -467 482 -516 519
-45 35 -161 89 -229 107 -88 24 -252 24 -345 0 -77 -20 -188 -72 -250 -117
-22 -16 -204 -192 -403 -391 l-364 -363 -382 385 c-373 377 -499 517 -616 691
-220 328 -359 692 -427 1114 -23 140 -25 591 -5 730 105 701 434 1295 944
1705 563 454 1257 671 1947 610z m4782 -20 c605 -47 1135 -267 1610 -670 420
-357 727 -867 849 -1412 47 -211 63 -367 64 -603 0 -353 -51 -644 -171 -965
-110 -294 -310 -623 -510 -838 l-58 -63 -1395 1394 c-767 767 -1411 1403
-1430 1413 -48 25 -162 25 -210 0 -19 -10 -426 -409 -905 -886 -841 -839 -872
-869 -945 -904 -104 -50 -177 -66 -295 -66 -169 0 -307 51 -422 155 -201 182
-272 457 -180 704 49 135 57 143 820 908 402 403 734 730 738 727 4 -2 120
101 258 230 289 270 361 330 526 438 374 246 832 401 1285 437 154 12 221 12
371 1z m-4936 -4814 c37 -18 101 -75 246 -222 108 -110 203 -212 212 -229 26
-53 30 -109 12 -172 -16 -57 -25 -67 -413 -456 -429 -430 -450 -447 -547 -447
-89 0 -130 30 -347 247 -210 211 -238 250 -237 333 0 95 8 105 434 531 220
220 416 409 435 419 52 28 142 26 205 -4z m1038 -1049 c53 -32 418 -400 443
-447 24 -46 25 -162 2 -205 -26 -48 -806 -824 -853 -848 -24 -12 -60 -21 -90
-21 -97 -2 -123 16 -352 246 -202 203 -212 216 -228 271 -18 63 -15 107 12
167 16 34 745 778 807 822 75 55 181 61 259 15z m1010 -1012 c19 -9 124 -107
235 -219 217 -218 242 -253 242 -341 0 -96 -13 -112 -428 -528 -213 -214 -407
-400 -432 -415 -59 -35 -154 -37 -215 -5 -52 28 -450 429 -465 468 -14 38 -15
142 0 180 13 35 800 828 845 852 67 36 154 39 218 8z m1052 -1054 c30 -17 130
-110 247 -228 184 -187 197 -203 213 -257 18 -62 14 -118 -12 -171 -8 -16
-191 -207 -407 -423 -275 -277 -405 -401 -438 -418 -59 -30 -144 -32 -203 -5
-25 12 -117 97 -251 232 -223 225 -234 241 -234 329 0 94 -3 90 428 524 272
272 420 414 447 427 63 29 149 25 210 -10z"/>
</g>
</svg>
