<?xml version="1.0" standalone="no"?>
<!DOCTYPE svg PUBLIC "-//W3C//DTD SVG 20010904//EN"
 "http://www.w3.org/TR/2001/REC-SVG-20010904/DTD/svg10.dtd">
<svg version="1.0" xmlns="http://www.w3.org/2000/svg"
 width="1280.000000pt" height="1280.000000pt" viewBox="0 0 1280.000000 1280.000000"
 preserveAspectRatio="xMidYMid meet">

<g transform="translate(0.000000,1280.000000) scale(0.100000,-0.100000)"
fill="#000000" stroke="none">
<path d="M9212 11549 c-218 -8 -360 -26 -552 -69 -19 -4 -51 -11 -70 -15 -63
-13 -323 -96 -410 -132 -162 -67 -245 -106 -345 -163 -38 -22 -86 -48 -105
-57 -34 -17 -281 -187 -324 -223 -12 -10 -59 -51 -106 -90 -112 -95 -3257
-3237 -3318 -3315 -59 -75 -65 -85 -103 -164 -57 -117 -72 -190 -72 -346 0
-125 3 -149 28 -225 63 -196 169 -339 330 -444 126 -83 234 -119 390 -132 l90
-6 1508 -1511 c1715 -1718 1569 -1557 1575 -1744 4 -100 3 -104 -31 -175 -103
-213 -331 -294 -547 -195 -35 16 -458 433 -1875 1847 -1006 1005 -1843 1835
-1860 1845 -39 24 -147 26 -190 3 -93 -49 -133 -175 -86 -266 11 -21 796 -814
1817 -1837 988 -990 1813 -1822 1833 -1850 35 -48 44 -63 70 -128 15 -37 14
-182 -2 -232 -53 -169 -211 -285 -388 -285 -92 0 -170 28 -244 86 -46 36
-4735 4728 -4786 4789 -19 22 -37 42 -40 45 -18 15 -143 178 -200 260 -66 96
-185 303 -215 376 -9 21 -24 57 -34 79 -49 110 -51 115 -95 255 -132 422 -158
819 -85 1300 5 36 21 110 35 165 15 55 30 116 35 135 8 32 71 212 100 285 28
73 135 279 190 365 33 52 63 102 67 110 4 8 9 17 12 20 3 3 39 48 79 101 68
90 167 203 257 294 49 49 190 175 219 194 12 8 23 17 26 21 12 13 208 149 245
169 22 11 67 37 100 56 58 34 125 68 230 115 28 12 64 28 80 35 56 25 272 94
361 115 49 11 107 25 129 30 201 47 682 61 900 26 188 -31 377 -74 475 -110
25 -9 77 -28 117 -41 39 -14 136 -56 215 -95 146 -71 154 -76 268 -145 94 -57
314 -224 395 -300 39 -37 93 -82 122 -102 45 -31 59 -35 114 -35 52 0 68 5
103 29 78 55 109 135 86 224 -9 37 -29 61 -118 148 -92 89 -200 180 -306 256
-15 11 -46 34 -69 52 -52 39 -298 184 -369 217 -29 13 -89 41 -133 61 -70 33
-175 74 -312 121 -39 13 -153 45 -233 64 -48 11 -251 48 -330 60 -156 23 -385
31 -575 20 -104 -7 -193 -14 -197 -16 -4 -3 -47 -9 -95 -15 -48 -5 -126 -19
-173 -30 -47 -11 -114 -27 -150 -35 -85 -20 -339 -105 -415 -139 -71 -32 -157
-71 -205 -93 -19 -9 -79 -42 -133 -74 -54 -32 -101 -58 -104 -58 -6 0 -315
-219 -323 -229 -3 -4 -59 -54 -126 -113 -66 -58 -135 -123 -153 -145 -19 -21
-59 -65 -90 -98 -83 -87 -223 -271 -304 -399 -72 -113 -212 -378 -249 -470
-58 -147 -109 -294 -128 -376 -4 -19 -17 -66 -28 -105 -10 -38 -25 -104 -32
-145 -6 -41 -17 -100 -22 -130 -6 -30 -15 -93 -20 -140 -14 -117 -21 -569 -9
-584 5 -6 12 -49 16 -96 7 -78 24 -187 44 -285 5 -22 14 -65 20 -95 10 -49 58
-210 96 -325 14 -41 33 -89 65 -160 10 -22 28 -65 41 -95 13 -30 31 -69 41
-87 38 -70 87 -160 104 -193 45 -84 196 -296 304 -425 84 -101 788 -811 2501
-2527 2119 -2121 2393 -2392 2469 -2440 152 -97 262 -130 435 -131 128 -1 190
10 295 51 165 66 259 138 365 284 92 124 140 261 154 443 5 61 9 79 20 77 24
-5 193 18 251 34 165 47 335 166 433 304 104 146 146 283 156 501 1 12 24 18
114 29 192 22 335 82 469 197 160 139 268 364 268 563 0 46 5 81 12 88 7 7 39
12 73 13 59 0 116 8 204 27 25 6 87 31 139 58 100 51 205 139 280 236 44 58
122 207 122 235 0 70 12 84 933 1006 494 496 927 936 960 977 34 41 74 89 90
106 15 17 57 74 92 125 35 52 68 99 72 104 14 17 63 94 63 98 0 2 23 44 51 93
126 217 268 582 314 809 9 44 20 94 25 110 5 17 16 91 25 165 9 74 20 149 26
166 12 40 12 454 -1 541 -5 38 -17 120 -25 183 -33 234 -75 400 -164 650 -42
117 -54 144 -146 330 -84 171 -266 448 -380 579 -80 92 -226 249 -256 275 -19
16 -61 54 -93 84 -33 30 -122 101 -198 158 -260 195 -554 350 -843 446 -16 5
-39 14 -50 19 -21 9 -158 47 -265 73 -155 37 -425 73 -593 79 -43 1 -153 -1
-245 -4z m498 -424 c52 -9 120 -20 150 -24 49 -8 137 -29 255 -62 56 -16 177
-58 197 -70 10 -5 22 -9 27 -9 9 0 51 -19 241 -108 19 -9 89 -48 155 -87 250
-148 481 -341 666 -555 35 -41 67 -77 70 -80 11 -10 179 -247 179 -253 0 -4
20 -38 44 -76 94 -146 219 -437 274 -636 35 -126 62 -245 62 -272 0 -16 4 -43
9 -59 29 -87 42 -532 21 -704 -15 -116 -31 -219 -40 -255 -5 -16 -16 -66 -25
-110 -9 -44 -20 -89 -25 -100 -4 -11 -20 -60 -36 -110 -28 -92 -63 -180 -115
-293 -16 -35 -29 -65 -29 -67 0 -26 -247 -414 -303 -475 -12 -14 -52 -61 -89
-105 -97 -116 -1614 -1629 -1626 -1621 -5 3 -20 25 -32 48 -12 23 -51 76 -85
118 -35 41 -689 700 -1454 1465 -765 764 -1391 1394 -1391 1400 0 13 362 375
375 375 5 0 33 -21 60 -46 77 -70 222 -184 306 -241 185 -125 461 -247 673
-297 36 -9 94 -23 129 -31 35 -8 79 -15 98 -15 19 0 51 -5 72 -11 44 -12 274
3 407 27 112 21 257 59 315 84 26 11 52 20 57 20 26 0 283 135 374 196 180
121 379 306 418 388 26 56 19 138 -18 193 -41 61 -87 85 -164 85 -73 1 -121
-25 -186 -99 -55 -62 -197 -180 -281 -234 -171 -110 -354 -186 -540 -224 -200
-40 -357 -42 -525 -6 -73 16 -111 27 -235 71 -11 4 -69 30 -130 59 -204 98
-410 248 -585 425 -129 131 -156 149 -228 150 -31 0 -70 -3 -87 -7 -21 -6
-351 -329 -1150 -1127 -1264 -1262 -1160 -1169 -1331 -1178 -132 -6 -222 27
-309 113 -85 86 -120 183 -112 311 4 64 12 96 37 150 31 66 101 137 1619 1657
1460 1461 1738 1733 1865 1816 13 9 63 42 110 73 101 68 181 114 291 167 147
72 199 93 345 141 174 58 299 86 550 124 127 20 544 14 680 -9z m-1778 -4802
c774 -775 1423 -1430 1441 -1458 51 -73 63 -102 76 -178 25 -147 -36 -297
-158 -386 -85 -61 -125 -74 -236 -74 -92 0 -106 2 -170 32 -68 31 -114 76
-1502 1464 -788 787 -1433 1436 -1433 1442 0 13 552 565 565 565 5 0 643 -633
1417 -1407z m-840 -882 c1293 -1296 1428 -1434 1457 -1492 134 -272 -55 -584
-354 -584 -95 0 -170 22 -235 70 -44 33 -2872 2857 -2878 2874 -1 4 23 31 55
59 32 27 159 151 283 276 124 124 230 226 236 226 6 0 652 -643 1436 -1429z"/>
</g>
</svg>
