<?xml version="1.0" standalone="no"?>
<!DOCTYPE svg PUBLIC "-//W3C//DTD SVG 20010904//EN"
 "http://www.w3.org/TR/2001/REC-SVG-20010904/DTD/svg10.dtd">
<svg version="1.0" xmlns="http://www.w3.org/2000/svg"
 width="1280.000000pt" height="1280.000000pt" viewBox="0 0 1280.000000 1280.000000"
 preserveAspectRatio="xMidYMid meet">

<g transform="translate(0.000000,1280.000000) scale(0.100000,-0.100000)"
fill="#000000" stroke="none">
<path d="M6325 11856 c-40 -18 -80 -63 -94 -105 -7 -23 -11 -145 -11 -370 0
-305 2 -340 19 -377 22 -49 60 -80 113 -95 88 -23 173 17 212 100 20 44 21 60
21 381 0 330 0 336 -23 380 -34 67 -71 92 -145 96 -40 3 -73 0 -92 -10z"/>
<path d="M4758 11438 c-47 -12 -103 -67 -119 -115 -19 -58 -6 -113 48 -210 27
-48 62 -110 78 -138 15 -27 36 -62 46 -77 11 -14 19 -28 19 -31 0 -13 135
-235 158 -260 14 -15 49 -34 76 -43 48 -15 54 -15 105 3 79 27 114 74 119 158
5 73 19 44 -212 444 -132 229 -145 245 -215 268 -43 14 -55 14 -103 1z"/>
<path d="M7936 11436 c-66 -25 -91 -56 -204 -258 -12 -20 -32 -55 -46 -77 -15
-22 -26 -43 -26 -45 0 -2 -21 -40 -46 -83 -88 -147 -104 -184 -104 -238 0 -87
51 -151 142 -175 52 -15 109 2 159 47 21 19 39 39 39 44 0 5 16 33 35 63 19
30 35 58 35 61 0 3 12 24 26 46 14 23 37 62 51 87 56 100 63 112 87 151 15 22
26 43 26 46 0 3 10 22 23 43 53 85 53 157 1 228 -42 57 -131 84 -198 60z"/>
<path d="M6215 10484 c-16 -2 -68 -9 -115 -15 -177 -24 -363 -82 -545 -170
-97 -47 -185 -96 -206 -115 -8 -8 -19 -14 -22 -14 -15 0 -206 -152 -273 -217
-200 -194 -364 -433 -458 -668 -15 -38 -32 -79 -37 -90 -10 -25 -53 -174 -68
-240 -55 -242 -55 -588 0 -830 38 -166 82 -290 156 -445 40 -81 141 -254 173
-293 5 -6 33 -41 62 -77 28 -36 54 -67 57 -70 55 -49 181 -270 181 -316 0 -13
5 -26 10 -29 6 -3 10 -16 10 -28 0 -33 52 -135 97 -192 22 -28 63 -66 91 -85
l51 -35 1 -65 c0 -95 26 -247 51 -310 48 -117 150 -241 241 -292 39 -22 42
-29 53 -133 27 -239 206 -467 435 -551 58 -21 182 -44 240 -44 60 0 184 24
252 50 230 86 398 311 424 568 3 39 9 74 13 79 3 6 25 22 48 36 52 33 143 127
182 189 58 91 82 179 90 331 6 112 10 141 23 148 43 24 120 93 146 131 44 65
60 100 97 212 30 92 53 143 96 215 18 31 21 36 124 161 129 157 240 343 325
545 11 26 46 130 60 180 83 293 94 656 28 950 -14 64 -56 214 -67 240 -5 11
-22 52 -37 90 -139 345 -408 670 -729 881 -244 160 -450 242 -750 300 -76 14
-441 28 -510 18z m445 -379 c380 -65 733 -270 965 -560 22 -27 43 -52 46 -55
17 -15 99 -148 144 -235 137 -261 203 -623 164 -887 -55 -372 -156 -601 -389
-883 -140 -169 -211 -295 -264 -470 -20 -64 -36 -98 -57 -117 l-29 -28 -325 0
-325 0 0 604 0 604 53 44 c66 55 146 107 228 148 88 44 126 75 149 120 61 120
-27 260 -164 260 -63 0 -298 -124 -409 -217 -16 -12 -35 -23 -42 -23 -8 0 -56
30 -107 66 -125 88 -299 174 -354 174 -135 0 -225 -141 -165 -258 26 -50 42
-63 144 -116 104 -53 197 -115 252 -167 l40 -38 0 -598 0 -598 -327 -3 -327
-2 -30 27 c-21 20 -37 54 -57 118 -53 174 -126 304 -264 470 -92 110 -190 255
-222 325 -11 25 -33 72 -48 105 -78 171 -130 422 -130 623 0 227 57 472 157
682 33 68 147 258 162 270 3 3 24 28 46 55 158 198 378 358 650 475 101 44
281 86 445 104 65 8 305 -4 390 -19z m385 -3635 c11 -33 -5 -132 -28 -179 -12
-23 -38 -58 -60 -76 -67 -58 -88 -60 -557 -60 -469 0 -490 2 -557 60 -22 18
-49 53 -61 76 -22 45 -39 156 -29 184 6 13 78 15 646 15 632 0 640 0 646 -20z
m-341 -695 c10 -27 -44 -123 -93 -166 -69 -61 -102 -72 -211 -73 -113 0 -165
20 -230 90 -45 49 -83 125 -74 149 9 23 599 23 608 0z"/>
<path d="M3583 10269 c-45 -13 -98 -71 -113 -124 -16 -59 1 -125 45 -169 27
-27 135 -94 307 -190 26 -14 96 -55 157 -91 61 -35 129 -69 150 -75 60 -16
125 4 171 52 95 97 59 233 -79 306 -24 12 -141 79 -260 149 -119 70 -232 133
-251 140 -41 14 -82 15 -127 2z"/>
<path d="M9105 10273 c-11 -3 -49 -22 -85 -43 -36 -21 -81 -47 -100 -58 -19
-11 -62 -35 -95 -54 -33 -19 -109 -63 -170 -98 -136 -78 -154 -92 -182 -138
-50 -82 -13 -206 73 -247 78 -37 141 -23 284 64 25 16 130 77 235 137 104 60
203 123 220 140 71 70 67 183 -7 254 -46 46 -104 60 -173 43z"/>
<path d="M3162 8679 c-18 -5 -49 -27 -70 -47 -73 -73 -73 -180 -1 -253 57 -57
84 -60 449 -57 366 3 373 5 434 81 26 33 30 45 29 100 0 74 -26 125 -81 159
-36 23 -42 23 -382 25 -202 1 -359 -2 -378 -8z"/>
<path d="M8917 8678 c-52 -14 -117 -88 -118 -137 -3 -91 9 -127 53 -168 52
-49 88 -53 426 -53 350 0 375 3 432 60 48 48 66 108 49 168 -16 56 -74 117
-126 131 -49 14 -664 13 -716 -1z"/>
<path d="M4110 7387 c-19 -7 -54 -25 -77 -40 -24 -15 -44 -27 -47 -27 -2 0
-77 -43 -166 -95 -89 -52 -164 -95 -166 -95 -15 0 -143 -92 -156 -112 -32 -48
-42 -104 -29 -149 34 -113 160 -169 261 -116 66 35 148 82 172 98 14 11 28 19
31 19 6 0 263 150 328 191 113 71 122 219 19 300 -43 34 -118 45 -170 26z"/>
<path d="M8577 7392 c-40 -10 -97 -59 -113 -98 -20 -48 -17 -111 7 -160 15
-32 37 -53 84 -84 36 -22 67 -40 70 -40 2 0 29 -16 59 -35 30 -19 57 -35 59
-35 3 0 78 -43 168 -96 90 -52 182 -100 205 -106 125 -34 252 98 215 222 -7
23 -22 52 -34 66 -19 22 -138 104 -152 104 -2 0 -29 16 -59 35 -30 19 -58 35
-61 35 -3 0 -41 23 -85 50 -44 28 -82 50 -85 50 -2 0 -38 20 -80 45 -78 46
-141 61 -198 47z"/>
<path d="M11275 6205 c-100 -16 -174 -39 -239 -73 -52 -28 -1031 -641 -2170
-1359 -132 -84 -263 -166 -291 -183 -27 -16 -59 -36 -69 -43 -11 -6 -74 -46
-140 -88 -67 -41 -194 -121 -282 -177 -89 -56 -166 -102 -172 -102 -6 0 -18
24 -27 53 -40 122 -134 276 -216 353 -121 113 -233 175 -404 227 -69 21 -81
21 -1410 25 -1302 3 -1657 -2 -1852 -29 -174 -23 -326 -50 -445 -80 -21 -5
-55 -13 -75 -18 -273 -62 -648 -240 -881 -418 -45 -35 -87 -61 -92 -58 -6 4
-10 50 -10 104 0 203 -98 367 -271 449 -107 51 -144 53 -739 50 l-545 -3 -75
-33 c-162 -70 -257 -186 -299 -365 -8 -34 -11 -475 -11 -1557 0 -1326 2 -1517
15 -1576 41 -173 136 -283 315 -362 56 -25 200 -32 648 -32 579 0 614 5 744
86 92 59 156 143 203 269 5 11 11 72 14 135 l6 115 1675 5 c1202 4 1703 9
1775 18 244 29 316 40 475 74 52 11 106 23 120 25 70 14 373 104 445 133 11 4
36 14 55 20 160 58 533 237 656 315 30 19 56 35 59 35 2 0 96 57 208 128 112
70 212 132 223 139 101 61 221 137 392 245 112 70 205 128 208 128 3 0 17 8
32 19 15 10 142 90 282 177 140 87 376 233 523 326 148 92 271 168 273 168 3
0 20 11 38 25 18 14 36 25 39 25 3 0 123 74 267 165 144 91 263 165 266 165 3
0 17 8 32 19 45 31 383 241 388 241 3 0 20 11 38 25 18 14 36 25 39 25 4 0 29
16 56 35 26 19 51 35 55 35 4 0 19 8 34 19 28 19 403 254 469 294 21 12 53 31
71 42 110 65 234 153 280 198 142 137 226 309 253 515 22 172 -26 375 -126
532 -134 210 -349 346 -598 380 -96 12 -130 12 -232 -5z m240 -366 c74 -19
167 -73 220 -126 45 -46 76 -94 119 -192 6 -13 11 -76 11 -140 0 -114 -1 -118
-38 -194 -44 -90 -115 -166 -202 -218 -32 -19 -72 -43 -89 -54 -17 -11 -46
-29 -64 -40 -18 -11 -145 -91 -283 -177 -138 -87 -252 -158 -254 -158 -2 0
-96 -58 -209 -130 -113 -71 -218 -136 -233 -145 -35 -19 -56 -32 -113 -70 -25
-16 -54 -35 -65 -41 -11 -6 -112 -68 -225 -139 -113 -70 -221 -138 -240 -150
-19 -12 -55 -35 -80 -51 -25 -16 -54 -33 -65 -39 -20 -11 -131 -81 -690 -430
-165 -104 -320 -200 -343 -214 -82 -48 -97 -58 -302 -185 -113 -71 -217 -137
-232 -147 -15 -10 -30 -19 -32 -19 -3 0 -38 -21 -77 -46 -200 -128 -421 -264
-429 -264 -4 0 -10 -4 -12 -8 -5 -12 -197 -119 -328 -183 -117 -58 -256 -116
-390 -164 -41 -15 -84 -31 -95 -36 -75 -30 -378 -106 -520 -130 -350 -58 -151
-52 -2029 -56 -1392 -3 -1711 -2 -1717 9 -5 7 -9 407 -9 888 0 958 -4 892 61
966 84 95 160 166 295 273 26 21 173 110 219 133 28 13 59 30 70 36 117 68
427 167 655 211 320 61 327 61 1905 61 1002 0 1442 -3 1470 -11 142 -39 273
-143 329 -263 56 -119 64 -192 39 -341 -26 -151 -165 -301 -332 -357 l-66 -23
-1040 -5 c-1164 -6 -1077 0 -1130 -77 -20 -30 -25 -50 -25 -100 0 -73 21 -116
77 -153 l37 -25 1030 -3 c655 -2 1055 1 1097 8 226 34 445 168 567 345 15 22
30 42 33 45 7 7 74 146 89 187 12 31 23 40 216 160 10 7 96 60 189 119 94 58
196 124 227 145 31 22 60 39 63 39 3 0 27 15 54 32 26 18 72 48 102 66 30 19
303 191 608 383 305 192 555 349 557 349 2 0 23 13 46 29 51 33 41 27 418 263
162 102 372 234 465 293 410 260 438 274 570 274 44 1 98 -4 120 -10z m-9421
-1394 c14 -13 31 -36 36 -50 6 -16 10 -571 10 -1516 -1 -1638 3 -1539 -62
-1579 -32 -19 -49 -20 -541 -20 -566 0 -560 -1 -591 65 -15 30 -16 181 -14
1549 l3 1515 34 30 35 31 531 0 532 0 27 -25z"/>
</g>
</svg>
