<?xml version="1.0" standalone="no"?>
<!DOCTYPE svg PUBLIC "-//W3C//DTD SVG 20010904//EN"
 "http://www.w3.org/TR/2001/REC-SVG-20010904/DTD/svg10.dtd">
<svg version="1.0" xmlns="http://www.w3.org/2000/svg"
 width="1280.000000pt" height="1280.000000pt" viewBox="0 0 1280.000000 1280.000000"
 preserveAspectRatio="xMidYMid meet">

<g transform="translate(0.000000,1280.000000) scale(0.100000,-0.100000)"
fill="#000000" stroke="none">
<path d="M9085 12471 c-11 -5 -51 -11 -90 -15 -118 -12 -242 -34 -375 -68 -41
-11 -91 -23 -110 -28 -78 -19 -270 -88 -382 -137 -172 -76 -445 -230 -558
-315 -147 -110 -260 -207 -391 -335 -159 -156 -179 -184 -179 -257 0 -45 39
-112 80 -140 32 -21 52 -26 101 -26 76 0 85 6 254 171 115 112 233 213 340
291 179 129 439 268 635 338 19 6 44 16 55 20 47 19 242 73 320 89 281 57 567
74 824 50 112 -11 341 -51 467 -83 228 -57 563 -205 741 -327 23 -16 44 -29
48 -29 3 0 52 -34 108 -76 288 -215 499 -440 693 -740 66 -102 178 -316 219
-419 15 -38 33 -83 40 -100 20 -46 72 -222 90 -300 9 -38 20 -88 25 -110 41
-177 64 -496 50 -685 -29 -397 -104 -696 -256 -1018 -24 -52 -44 -96 -44 -98
0 -6 -75 -131 -134 -224 -55 -86 -185 -260 -251 -335 -14 -16 -550 -554 -1190
-1195 -1011 -1012 -1165 -1170 -1175 -1207 -45 -151 104 -281 244 -213 28 13
407 386 1182 1162 627 629 1170 1176 1206 1215 270 298 507 714 632 1113 168
533 193 1108 71 1625 -15 61 -29 121 -31 135 -30 145 -184 522 -293 713 -197
347 -456 643 -811 930 -59 48 -294 207 -305 207 -3 0 -23 11 -45 25 -126 79
-361 183 -565 250 -163 53 -141 47 -360 95 -22 5 -74 14 -115 19 -41 6 -106
16 -145 23 -83 13 -591 21 -620 9z"/>
<path d="M9207 11199 c-59 -5 -143 -16 -185 -25 -42 -9 -88 -19 -102 -21 -36
-7 -180 -52 -217 -69 -17 -8 -34 -14 -37 -14 -17 0 -211 -99 -281 -143 -183
-117 -267 -196 -1410 -1341 -627 -627 -1165 -1169 -1195 -1204 -64 -75 -167
-216 -195 -270 -11 -20 -34 -62 -50 -92 -46 -83 -114 -255 -136 -343 -70 -286
-85 -528 -45 -767 67 -404 208 -690 494 -1002 49 -54 101 -123 116 -154 86
-175 55 -375 -80 -511 -103 -104 -183 -137 -330 -136 -96 0 -106 2 -180 38
-64 31 -97 56 -174 134 -89 90 -227 257 -297 361 -98 145 -210 356 -267 500
-21 52 -44 110 -52 128 -8 18 -14 41 -14 51 0 10 -3 21 -7 25 -16 15 -57 186
-91 371 -56 308 -56 618 -2 940 31 183 106 437 171 583 11 24 27 61 36 84 49
123 212 391 326 538 88 113 112 137 952 980 453 454 831 841 841 860 23 46 23
130 -1 167 -55 86 -151 116 -233 74 -52 -28 -1698 -1680 -1798 -1806 -209
-263 -348 -497 -459 -775 -25 -63 -50 -124 -54 -135 -5 -11 -21 -60 -36 -110
-15 -49 -31 -101 -36 -115 -23 -68 -57 -247 -85 -445 -22 -150 -25 -563 -6
-705 44 -328 103 -566 204 -820 53 -132 187 -399 236 -467 12 -17 22 -34 22
-38 0 -8 132 -194 188 -265 70 -88 232 -261 300 -320 166 -145 383 -212 609
-190 506 50 835 552 687 1046 -37 123 -107 234 -235 369 -70 74 -94 104 -146
180 -48 70 -123 202 -123 216 0 5 -6 20 -14 32 -8 12 -28 63 -44 112 -73 219
-99 456 -71 647 12 88 58 289 69 303 4 6 10 24 14 40 10 41 90 204 133 274 20
31 63 90 97 133 34 42 588 602 1231 1245 1068 1068 1179 1175 1271 1236 195
129 350 193 594 242 124 26 410 23 540 -4 306 -64 539 -188 750 -400 125 -126
194 -218 269 -363 96 -185 147 -378 157 -593 13 -292 -33 -511 -161 -760 -59
-114 -121 -205 -197 -291 -29 -32 -381 -388 -782 -789 -742 -743 -766 -770
-766 -840 0 -28 16 -68 43 -108 40 -59 136 -83 208 -53 41 18 1573 1551 1642
1644 83 111 194 298 226 382 8 19 20 49 27 65 26 61 75 230 93 325 156 810
-261 1638 -1001 1990 -99 47 -254 103 -328 120 -122 27 -213 41 -321 50 -138
11 -149 11 -302 -1z"/>
<path d="M4011 11063 c-18 -9 -44 -33 -57 -52 -41 -63 -41 -119 0 -261 9 -30
20 -73 25 -95 5 -22 18 -74 30 -115 54 -201 99 -372 111 -420 24 -104 54 -150
116 -180 106 -52 231 16 249 135 4 27 -3 72 -20 140 -15 55 -30 116 -35 135
-8 36 -46 179 -75 285 -9 33 -29 112 -46 175 -16 63 -35 131 -41 150 -12 40
-51 85 -90 106 -36 19 -125 17 -167 -3z"/>
<path d="M2605 10253 c-101 -53 -134 -170 -72 -257 12 -17 160 -169 329 -338
359 -360 373 -369 483 -317 88 41 126 139 90 227 -20 46 -623 654 -677 683
-45 23 -112 24 -153 2z"/>
<path d="M1798 8836 c-134 -48 -144 -258 -14 -320 30 -14 165 -53 266 -77 19
-4 96 -24 170 -44 292 -78 327 -87 392 -102 52 -11 76 -12 108 -3 57 15 116
76 125 129 19 113 -38 193 -160 224 -152 40 -253 66 -310 82 -33 10 -76 21
-95 25 -19 5 -62 16 -95 25 -164 45 -292 75 -319 75 -17 -1 -48 -7 -68 -14z"/>
<path d="M7090 8030 c-60 -11 -154 -43 -210 -71 -155 -76 -312 -240 -377 -395
-84 -197 -93 -346 -35 -576 19 -75 106 -227 168 -293 15 -16 56 -60 90 -96
115 -124 265 -369 290 -476 4 -15 10 -32 14 -38 10 -15 52 -171 62 -235 16
-96 21 -360 9 -435 -45 -271 -129 -479 -274 -680 -62 -86 54 33 -818 -841
-692 -696 -746 -752 -759 -796 -40 -147 108 -273 245 -209 44 21 1455 1427
1564 1559 168 203 305 479 361 727 54 235 65 487 30 698 -11 67 -25 140 -31
162 -5 22 -14 56 -19 75 -32 124 -132 350 -207 468 -53 83 -149 204 -244 308
-46 49 -96 115 -111 145 -69 143 -60 325 25 448 92 134 217 201 377 201 144 0
228 -38 350 -160 88 -88 152 -161 231 -265 51 -67 149 -211 149 -219 0 -3 15
-29 34 -58 53 -83 156 -302 200 -423 79 -222 119 -392 156 -670 13 -102 13
-464 0 -558 -6 -40 -15 -106 -21 -147 -21 -150 -72 -348 -135 -525 -34 -94
-33 -91 -108 -245 -107 -220 -181 -338 -324 -520 -47 -58 -543 -563 -1286
-1306 -666 -665 -1231 -1228 -1256 -1250 -64 -57 -232 -183 -316 -236 -253
-162 -533 -281 -829 -353 -200 -48 -320 -63 -570 -72 -233 -8 -398 6 -635 54
-79 16 -84 17 -225 58 -651 190 -1219 636 -1572 1233 -58 99 -162 311 -184
377 -7 22 -16 45 -20 50 -6 9 -33 94 -73 225 -122 409 -128 976 -13 1410 10
41 22 84 24 95 37 147 165 444 262 605 11 19 29 51 40 70 24 45 152 221 211
291 77 93 156 173 1296 1315 685 686 1118 1128 1129 1150 25 53 17 132 -19
178 -49 65 -128 89 -199 62 -34 -13 -269 -243 -1233 -1208 -823 -824 -1217
-1226 -1277 -1301 -95 -121 -217 -299 -272 -397 -54 -98 -175 -349 -175 -364
0 -7 -3 -16 -7 -19 -17 -17 -105 -288 -133 -407 -65 -278 -90 -489 -89 -750 0
-260 25 -466 89 -750 79 -347 285 -784 513 -1085 165 -219 402 -463 572 -590
22 -17 50 -39 63 -50 69 -59 304 -204 445 -274 179 -88 272 -131 287 -131 6 0
18 -4 28 -10 44 -25 325 -107 477 -138 203 -43 255 -47 610 -47 289 0 371 3
470 18 66 10 130 23 143 28 13 5 32 9 43 9 17 0 94 19 244 61 365 103 764 319
1095 592 93 78 2418 2396 2515 2509 33 38 67 77 75 86 64 72 231 308 277 392
11 19 34 61 52 93 72 130 115 223 201 442 4 11 20 61 35 110 15 50 31 101 35
115 34 106 80 360 100 552 22 208 7 566 -31 783 -14 79 -58 282 -70 320 -79
255 -135 400 -225 575 -161 314 -310 519 -548 755 -128 128 -150 145 -236 188
-52 26 -120 54 -150 63 -65 17 -305 27 -370 14z"/>
<path d="M3630 6163 c-45 -19 -1542 -1519 -1635 -1637 -211 -271 -335 -584
-375 -951 -22 -200 -2 -444 52 -640 11 -38 22 -79 25 -90 2 -11 8 -29 13 -40
4 -11 14 -36 21 -55 48 -135 163 -339 268 -475 65 -85 194 -218 271 -278 36
-29 74 -60 84 -69 11 -10 23 -18 27 -18 4 0 14 -6 21 -13 39 -38 319 -187 351
-187 7 0 17 -4 23 -8 20 -18 208 -71 349 -98 128 -25 493 -25 620 0 139 27
305 73 347 97 10 5 23 9 28 9 25 0 259 124 349 184 130 88 177 128 383 334
195 192 216 225 204 303 -9 57 -31 91 -79 123 -57 36 -98 42 -153 21 -34 -13
-88 -59 -227 -197 -213 -210 -308 -285 -466 -366 -149 -76 -245 -109 -446
-154 -92 -20 -428 -17 -530 5 -147 32 -345 103 -427 154 -21 13 -41 23 -44 23
-23 0 -196 140 -289 234 -182 183 -288 365 -373 636 -40 127 -59 359 -43 531
25 290 133 558 314 784 22 28 381 392 798 810 551 553 762 771 773 799 20 49
20 84 0 131 -39 93 -143 137 -234 98z"/>
<path d="M10025 4498 c-102 -36 -151 -143 -110 -241 17 -41 75 -92 114 -101
14 -3 69 -17 121 -32 130 -35 278 -74 320 -84 19 -4 62 -16 95 -25 96 -27 127
-36 170 -45 22 -5 56 -14 75 -20 74 -22 161 -4 203 41 46 49 59 131 32 196
-26 61 -73 95 -155 113 -19 4 -61 15 -92 24 -247 69 -706 186 -728 185 -8 0
-28 -5 -45 -11z"/>
<path d="M9422 3457 c-99 -36 -149 -156 -103 -245 20 -38 638 -657 678 -680
52 -28 160 -5 205 45 24 26 48 87 48 120 -1 68 -35 109 -358 431 -262 261
-326 320 -359 330 -48 14 -68 14 -111 -1z"/>
<path d="M8385 2858 c-70 -25 -125 -96 -125 -162 0 -25 32 -156 85 -351 10
-33 20 -76 25 -95 4 -19 20 -80 34 -135 15 -55 38 -140 51 -190 32 -126 38
-137 86 -179 40 -34 47 -36 108 -36 85 1 136 33 165 103 24 57 19 95 -48 342
-53 196 -78 290 -86 325 -11 44 -55 213 -70 262 -14 48 -68 101 -118 116 -47
14 -67 14 -107 0z"/>
</g>
</svg>
