<?xml version="1.0" standalone="no"?>
<!DOCTYPE svg PUBLIC "-//W3C//DTD SVG 20010904//EN"
 "http://www.w3.org/TR/2001/REC-SVG-20010904/DTD/svg10.dtd">
<svg version="1.0" xmlns="http://www.w3.org/2000/svg"
 width="1280.000000pt" height="1280.000000pt" viewBox="0 0 1280.000000 1280.000000"
 preserveAspectRatio="xMidYMid meet">

<g transform="translate(0.000000,1280.000000) scale(0.100000,-0.100000)"
fill="#000000" stroke="none">
<path d="M5240 11728 c-226 -22 -445 -52 -511 -69 -20 -5 -47 -9 -60 -9 -58 0
-595 -140 -694 -180 -11 -5 -49 -18 -85 -30 -55 -18 -115 -41 -235 -90 -208
-84 -484 -220 -658 -323 -43 -26 -81 -47 -83 -47 -3 0 -52 -31 -110 -70 -57
-38 -106 -70 -109 -70 -6 0 -256 -182 -308 -224 -226 -182 -282 -231 -469
-416 -128 -125 -180 -180 -333 -355 -100 -114 -307 -394 -417 -565 -127 -197
-273 -464 -356 -650 -16 -36 -38 -85 -50 -110 -21 -47 -41 -98 -87 -215 -15
-38 -31 -79 -35 -90 -44 -109 -138 -425 -177 -595 -62 -275 -81 -388 -120
-735 -23 -205 -23 -778 0 -980 35 -305 57 -449 96 -627 6 -27 15 -67 20 -90
12 -51 39 -161 51 -203 37 -133 56 -195 90 -295 35 -106 68 -196 89 -245 5
-11 19 -45 31 -75 12 -30 31 -75 42 -100 11 -25 29 -65 39 -90 94 -212 324
-621 452 -800 41 -57 262 -355 267 -360 3 -3 45 -52 95 -110 274 -321 633
-648 985 -896 97 -68 356 -234 365 -234 4 0 19 -8 33 -19 51 -35 448 -241 466
-241 3 0 38 -15 78 -34 40 -19 100 -44 133 -56 33 -13 74 -29 90 -36 41 -17
146 -54 170 -61 11 -2 29 -9 40 -13 30 -13 302 -93 405 -120 55 -14 262 -58
295 -63 17 -3 57 -10 90 -16 266 -51 753 -86 1030 -76 358 13 629 43 935 105
108 22 350 80 415 100 17 5 68 21 115 35 47 14 93 30 102 36 10 5 24 9 33 9 8
0 29 7 47 14 18 8 93 38 166 65 133 51 172 68 292 123 77 36 270 133 320 161
230 129 462 279 667 433 65 49 120 91 123 94 3 3 26 22 52 43 26 21 53 43 60
50 7 7 47 41 88 77 102 88 349 335 446 445 43 50 81 92 85 95 19 18 210 265
281 365 83 117 248 370 248 381 0 3 16 30 36 61 39 61 187 347 222 429 12 28
34 80 50 115 16 35 51 120 77 189 26 69 51 134 55 145 13 32 56 164 74 230 10
33 21 71 26 85 16 50 31 108 55 215 14 61 30 126 35 145 5 19 16 78 25 130 9
52 20 118 25 145 10 58 35 270 50 430 14 148 13 697 -1 788 -13 86 -43 148
-96 200 -43 44 -75 62 -142 83 -113 34 -226 2 -316 -91 -60 -62 -89 -133 -89
-220 1 -33 2 -181 3 -330 2 -255 -7 -406 -39 -680 -19 -165 -73 -421 -131
-625 -30 -102 -101 -325 -118 -365 -5 -11 -21 -51 -36 -90 -71 -183 -198 -444
-291 -602 -24 -41 -44 -76 -44 -78 0 -8 -128 -205 -175 -270 -144 -197 -209
-280 -299 -385 -109 -127 -381 -404 -454 -463 -26 -20 -65 -53 -87 -73 -86
-76 -357 -274 -502 -367 -83 -53 -154 -97 -157 -97 -3 0 -29 -15 -58 -34 -48
-30 -317 -165 -428 -214 -116 -51 -294 -118 -420 -157 -47 -15 -93 -31 -102
-36 -10 -5 -27 -9 -37 -9 -11 0 -30 -4 -43 -9 -67 -28 -365 -94 -538 -120
-245 -37 -529 -61 -730 -61 -189 0 -587 33 -730 60 -25 5 -76 14 -115 20 -269
45 -680 165 -912 266 -17 8 -34 14 -37 14 -38 0 -530 253 -684 352 -15 10 -40
25 -56 34 -16 9 -34 20 -40 25 -6 5 -58 42 -116 82 -231 160 -453 348 -663
562 -90 91 -257 278 -307 345 -19 25 -37 47 -40 50 -3 3 -19 23 -35 45 -17 22
-32 42 -35 45 -28 26 -201 289 -287 435 -151 258 -320 626 -382 830 -7 22 -16
49 -21 60 -4 11 -20 61 -35 110 -15 50 -30 101 -35 115 -8 22 -16 57 -50 205
-5 22 -13 60 -19 85 -30 120 -57 310 -81 543 -26 267 -21 705 11 957 15 119
59 388 69 430 5 19 16 67 25 105 35 154 39 170 47 180 4 5 8 16 8 25 0 18 48
178 61 202 5 10 9 23 9 29 0 16 101 282 111 294 5 5 9 15 9 23 0 19 177 378
245 497 60 105 185 306 195 315 3 3 46 61 94 129 49 68 97 134 106 145 224
268 421 476 590 621 66 57 205 170 245 200 22 16 42 32 45 35 21 25 438 300
455 300 3 0 29 15 58 33 73 47 483 247 505 247 4 0 43 15 87 33 110 46 290
107 435 147 19 5 60 16 90 25 118 32 227 55 405 86 197 33 609 69 800 69 146
0 539 -34 705 -61 115 -19 323 -61 400 -81 41 -11 107 -28 145 -38 153 -40
418 -134 585 -207 103 -45 393 -191 469 -236 134 -79 328 -205 414 -268 122
-90 175 -113 267 -113 64 0 87 5 134 28 103 51 160 124 185 237 23 108 -27
236 -122 310 -29 22 -63 49 -77 60 -36 29 -367 249 -374 249 -3 0 -29 15 -58
33 -153 97 -446 242 -669 332 -63 25 -123 50 -134 55 -29 12 -149 55 -225 79
-36 12 -81 27 -100 33 -19 6 -48 15 -65 19 -16 4 -64 16 -105 28 -183 49 -214
56 -445 101 -122 23 -347 53 -536 70 -134 12 -725 11 -849 -2z"/>
<path d="M11035 11369 c-277 -51 -437 -124 -645 -295 -41 -34 -1125 -1113
-2407 -2398 -1283 -1285 -2338 -2336 -2345 -2336 -7 0 -400 386 -873 858 -640
639 -882 874 -946 920 -329 235 -749 300 -1129 175 -41 -13 -99 -35 -128 -49
-29 -13 -54 -24 -57 -24 -9 0 -144 -87 -195 -126 -252 -191 -422 -476 -480
-801 -14 -81 -14 -325 0 -406 40 -227 145 -456 283 -615 17 -20 693 -700 1502
-1510 1061 -1063 1491 -1487 1544 -1524 222 -154 492 -190 759 -102 64 21 160
72 216 114 28 21 1402 1390 3052 3042 2042 2043 3017 3025 3050 3073 108 154
185 328 214 485 7 36 16 75 21 88 12 30 12 317 0 356 -5 17 -17 65 -26 106
-43 191 -118 347 -240 500 -249 313 -604 481 -1005 478 -63 0 -137 -4 -165 -9z
m388 -675 c260 -99 421 -344 404 -614 -9 -135 -44 -234 -120 -335 -63 -85
-5958 -5974 -5996 -5991 -47 -20 -115 -18 -159 5 -21 11 -664 648 -1502 1488
-1506 1508 -1506 1509 -1547 1625 -43 121 -52 223 -29 328 31 144 85 243 182
335 68 64 144 110 235 141 100 34 272 35 369 3 157 -51 115 -13 1100 -994 503
-502 935 -925 960 -942 103 -67 174 -87 310 -87 146 -1 213 18 328 91 34 22
932 914 2458 2441 1322 1324 2421 2418 2441 2432 126 83 229 111 391 105 83
-3 119 -10 175 -31z"/>
</g>
</svg>
