<?xml version="1.0" standalone="no"?>
<!DOCTYPE svg PUBLIC "-//W3C//DTD SVG 20010904//EN"
 "http://www.w3.org/TR/2001/REC-SVG-20010904/DTD/svg10.dtd">
<svg version="1.0" xmlns="http://www.w3.org/2000/svg"
 width="1280.000000pt" height="1280.000000pt" viewBox="0 0 1280.000000 1280.000000"
 preserveAspectRatio="xMidYMid meet">

<g transform="translate(0.000000,1280.000000) scale(0.100000,-0.100000)"
fill="#000000" stroke="none">
<path d="M6305 12002 c-36 -14 -79 -37 -120 -63 -34 -22 -460 -234 -580 -289
-22 -10 -89 -41 -148 -69 -59 -28 -112 -51 -118 -51 -5 0 -17 -4 -27 -9 -9 -5
-39 -19 -67 -31 -27 -12 -68 -30 -91 -41 -23 -10 -46 -19 -52 -19 -6 0 -23 -6
-39 -14 -15 -8 -53 -24 -83 -36 -30 -12 -64 -25 -75 -30 -11 -5 -38 -16 -60
-23 -70 -25 -189 -69 -210 -78 -27 -11 -101 -38 -145 -51 -19 -5 -39 -14 -45
-18 -5 -4 -26 -11 -45 -15 -19 -4 -48 -13 -65 -20 -38 -16 -87 -32 -145 -50
-25 -7 -67 -20 -95 -29 -81 -25 -186 -56 -240 -71 -27 -7 -81 -23 -120 -35
-38 -11 -97 -28 -130 -36 -33 -8 -87 -22 -120 -30 -33 -9 -85 -22 -115 -29
-30 -7 -73 -17 -95 -23 -22 -5 -85 -20 -140 -32 -55 -12 -122 -28 -149 -36
-26 -8 -60 -14 -75 -14 -15 0 -50 -6 -77 -14 -27 -8 -71 -17 -99 -21 -27 -3
-79 -12 -115 -20 -88 -18 -244 -43 -305 -49 -98 -9 -179 -69 -222 -163 l-24
-51 3 -2449 c3 -2648 1 -2498 54 -2838 32 -203 107 -537 134 -600 4 -11 24
-70 44 -132 39 -122 98 -282 121 -326 8 -16 15 -32 15 -37 0 -25 239 -503 259
-520 4 -3 12 -16 19 -30 6 -14 18 -34 24 -45 7 -11 33 -51 57 -90 139 -224
358 -518 514 -690 10 -11 51 -57 90 -103 142 -163 456 -459 703 -662 114 -93
391 -300 403 -300 5 0 11 -3 13 -7 5 -12 197 -142 308 -209 25 -15 74 -46 110
-69 36 -23 88 -54 115 -69 28 -15 82 -45 120 -66 139 -76 377 -198 460 -236
33 -14 101 -46 152 -70 50 -24 95 -44 98 -44 4 0 21 -6 38 -14 18 -8 59 -24
92 -36 33 -12 73 -28 88 -36 16 -8 33 -14 38 -14 11 0 89 -33 132 -55 19 -10
57 -15 109 -15 72 0 90 4 155 35 41 19 81 35 91 35 9 0 26 7 36 15 11 8 26 15
33 15 8 0 33 8 56 19 23 10 68 28 99 39 32 12 66 25 75 30 10 5 34 16 53 25
177 80 442 211 585 291 22 12 72 39 110 60 39 21 81 46 95 55 14 9 34 21 45
28 11 7 44 27 73 45 30 18 61 38 70 43 63 38 210 136 277 184 39 27 88 62 110
78 64 44 244 182 315 241 79 67 170 143 184 157 6 6 49 44 96 85 113 99 347
333 445 445 43 50 81 92 84 95 53 47 433 548 450 594 2 6 19 31 36 56 17 25
34 50 36 55 2 6 22 41 44 78 22 38 55 94 73 125 33 59 169 332 204 412 10 25
24 54 30 64 6 11 14 31 18 45 5 14 18 51 30 81 67 172 148 431 180 575 6 28
20 91 31 140 11 50 24 121 30 160 5 38 11 77 14 86 3 9 13 79 22 155 15 126
17 379 20 2639 3 2463 3 2500 -16 2541 -43 90 -121 140 -241 154 -92 11 -194
27 -280 45 -36 8 -85 16 -110 20 -25 3 -72 12 -105 20 -33 7 -94 20 -135 29
-71 15 -95 20 -235 50 -33 8 -98 23 -145 36 -47 12 -110 28 -140 35 -30 7 -89
23 -130 34 -41 12 -97 27 -125 32 -27 6 -54 15 -59 20 -6 5 -18 9 -28 9 -10 0
-44 8 -75 19 -32 10 -112 35 -178 56 -66 20 -132 41 -147 47 -14 5 -41 14 -60
18 -18 5 -85 27 -148 50 -63 22 -133 47 -155 54 -22 7 -71 25 -110 40 -103 40
-130 51 -235 91 -52 20 -108 42 -125 49 -16 7 -55 23 -85 36 -30 12 -68 28
-85 34 -30 13 -78 33 -150 66 -22 10 -56 25 -75 33 -129 55 -668 320 -725 356
-76 48 -119 63 -190 67 -38 2 -79 0 -90 -4z m109 -580 c7 -11 574 -292 590
-292 2 0 39 -16 83 -36 124 -56 135 -62 188 -84 28 -12 64 -28 80 -35 80 -36
205 -85 214 -85 6 0 19 -4 29 -9 31 -17 107 -49 132 -56 14 -4 30 -11 35 -15
6 -4 26 -13 45 -18 40 -12 116 -39 145 -51 43 -18 140 -52 320 -111 66 -22
134 -45 150 -51 17 -6 50 -16 75 -24 25 -7 77 -23 115 -34 39 -12 84 -26 100
-30 17 -5 98 -28 180 -51 83 -23 166 -46 185 -50 89 -20 178 -43 213 -56 20
-8 48 -14 61 -14 13 0 46 -6 72 -14 46 -13 148 -36 324 -72 41 -9 102 -22 135
-29 33 -8 80 -16 105 -19 63 -9 143 -28 158 -39 9 -8 12 -460 12 -2206 -1
-1208 -5 -2252 -10 -2321 -14 -189 -38 -404 -50 -434 -5 -15 -10 -41 -10 -59
0 -63 -115 -499 -156 -594 -8 -17 -14 -35 -14 -39 0 -11 -65 -174 -101 -252
-16 -34 -29 -64 -29 -66 0 -8 -90 -191 -126 -256 -47 -87 -157 -274 -164 -280
-10 -9 -50 -69 -50 -75 0 -5 -36 -58 -104 -153 -232 -323 -591 -713 -871 -945
-33 -27 -62 -53 -65 -56 -3 -4 -43 -38 -90 -75 -47 -38 -102 -82 -122 -99 -34
-28 -70 -54 -233 -168 -156 -110 -370 -249 -383 -249 -6 0 -12 -3 -14 -8 -14
-33 -575 -326 -843 -441 -27 -12 -62 -28 -77 -36 -14 -8 -31 -15 -38 -15 -7 0
-26 -7 -43 -15 -123 -56 -198 -68 -260 -41 -18 7 -59 23 -92 35 -57 22 -86 34
-157 65 -249 111 -563 269 -719 363 -44 26 -92 54 -107 62 -33 17 -131 80
-270 172 -57 38 -107 69 -112 69 -5 0 -13 6 -17 13 -4 6 -15 17 -25 22 -112
68 -449 337 -632 505 -502 462 -881 956 -1145 1495 -38 77 -81 169 -96 205
-14 36 -33 79 -41 97 -8 17 -14 37 -14 45 0 7 -6 22 -13 33 -7 11 -23 54 -36
95 -13 41 -27 83 -32 92 -5 10 -13 37 -19 60 -6 24 -19 75 -30 113 -20 69 -37
141 -60 260 -7 33 -18 92 -26 130 -8 39 -19 120 -24 180 -6 61 -15 144 -20
185 -5 43 -9 1038 -10 2326 0 1790 3 2254 13 2261 14 11 145 43 176 43 12 0
50 6 84 14 34 8 96 21 137 30 185 38 278 59 324 72 26 8 59 14 72 14 14 0 40
6 58 14 18 7 53 17 77 21 24 4 64 13 89 20 71 21 145 42 290 80 74 20 146 41
160 47 14 6 48 16 75 24 65 17 142 40 180 53 17 6 84 29 150 51 138 46 297
102 338 118 16 7 32 12 37 12 5 0 24 6 42 14 18 8 75 31 126 50 176 68 277
108 317 126 22 9 58 25 80 34 22 9 53 23 68 31 16 8 32 15 37 15 8 0 91 37
225 100 33 16 105 49 160 75 187 88 425 207 431 216 7 11 51 12 58 1z"/>
<path d="M8785 9048 c-42 -21 -118 -95 -245 -238 -41 -47 -82 -92 -90 -101 -8
-9 -51 -56 -95 -104 -44 -49 -85 -93 -91 -99 -5 -6 -55 -60 -109 -121 -55 -60
-104 -115 -110 -121 -33 -35 -197 -215 -226 -249 -19 -21 -41 -46 -49 -55 -8
-9 -58 -63 -110 -120 -52 -57 -102 -110 -110 -119 -9 -9 -49 -54 -90 -101 -84
-94 -83 -93 -161 -176 -30 -32 -93 -102 -139 -154 -94 -106 -89 -100 -146
-161 -22 -24 -89 -98 -149 -164 -59 -66 -129 -142 -154 -170 -78 -84 -162
-176 -246 -270 -44 -49 -103 -115 -131 -145 -29 -30 -69 -74 -89 -97 -23 -26
-47 -43 -60 -43 -15 0 -46 26 -96 82 -142 158 -351 387 -384 422 -6 6 -49 54
-95 106 -47 52 -87 97 -90 100 -6 6 -184 201 -300 330 -47 52 -112 123 -145
158 -33 35 -64 70 -68 78 -14 24 -121 101 -152 108 -59 15 -155 7 -202 -16
-111 -56 -172 -192 -137 -306 14 -47 66 -130 95 -152 3 -3 25 -27 49 -55 23
-27 86 -97 140 -155 53 -58 159 -175 236 -260 76 -85 150 -166 164 -180 14
-14 83 -91 155 -170 71 -80 155 -172 186 -205 31 -33 78 -85 105 -115 47 -54
62 -71 180 -200 33 -36 73 -81 89 -100 62 -73 136 -139 165 -145 16 -4 32 -11
35 -16 10 -15 109 -10 151 6 75 30 88 41 192 160 59 66 109 122 112 125 4 3
51 55 105 115 54 61 122 135 151 165 28 30 98 107 154 170 57 63 146 162 200
220 53 58 164 179 245 270 82 91 151 167 155 170 4 3 51 55 105 115 85 96 260
287 290 319 6 6 49 54 95 106 47 52 87 97 90 100 12 12 211 229 241 264 46 53
73 83 123 136 23 25 107 117 186 205 80 88 152 167 160 176 53 56 198 217 230
256 120 144 79 339 -88 424 -52 27 -173 26 -227 -3z"/>
</g>
</svg>
